<svg xmlns="http://www.w3.org/2000/svg" width="50" height="50" viewBox="0 0 50 50">
  <path id="load-icon" d="M45.5,531.14l12.75,22.111H39.5a31.081,31.081,0,0,1-.5-5.025A24.64,24.64,0,0,1,45.5,531.14ZM40,555.512H64.25L55,571.341a23.378,23.378,0,0,1-9.25-6.281A26.348,26.348,0,0,1,40,555.512Zm17.5-11.307h0L48,528.628A24.137,24.137,0,0,1,63.75,523.1a44.664,44.664,0,0,1,5.5.5Zm1,28.392c.25-.5,2-3.518,5-8.794s5.5-9.3,7-12.06l9.25,15.829A24.137,24.137,0,0,1,64,573.1,44.664,44.664,0,0,1,58.5,572.6Zm29.25-32.161H63.5l9.25-15.829A23.377,23.377,0,0,1,82,530.889C84.5,533.653,86.75,536.668,87.75,540.437Zm.75,2.513a31.081,31.081,0,0,1,.5,5.025,25.552,25.552,0,0,1-6.5,17.085l-12-20.6-.75-1.256H88.5Z" transform="translate(-39 -523.1)" fill="rgba(0,0,0,0.71)"/>
</svg>
