<svg xmlns="http://www.w3.org/2000/svg" width="29" height="21" viewBox="0 0 29 21">
  <path id="share-photo" d="M324.7,646.9a2.447,2.447,0,0,1-.764,1.75,2.535,2.535,0,0,1-1.782.75H299.245a2.535,2.535,0,0,1-1.782-.75,2.447,2.447,0,0,1-.764-1.75v-15a2.447,2.447,0,0,1,.764-1.75,2.535,2.535,0,0,1,1.782-.75h22.909a2.536,2.536,0,0,1,1.782.75,2.447,2.447,0,0,1,.764,1.75Zm-18.455-6.875-4.455,5.625h17.818l-5.727-7.5-4.454,5.625Z" transform="translate(-296.2 -628.9)" fill="#666" stroke="#666" stroke-width="1"/>
</svg>
