<svg xmlns="http://www.w3.org/2000/svg" width="27" height="27" viewBox="0 0 27 27">
  <path id="share-video" d="M153.815,39.815A12.833,12.833,0,0,1,163.4,35.9a13.592,13.592,0,0,1,9.585,3.915A12.833,12.833,0,0,1,176.9,49.4a13.362,13.362,0,0,1-3.915,9.585A12.833,12.833,0,0,1,163.4,62.9a13.362,13.362,0,0,1-9.585-3.915A12.833,12.833,0,0,1,149.9,49.4,12.63,12.63,0,0,1,153.815,39.815ZM155.7,56.96a10.435,10.435,0,0,0,7.56,3.24,10.007,10.007,0,0,0,7.56-3.24,10.435,10.435,0,0,0,3.24-7.56,10.007,10.007,0,0,0-3.24-7.56,10.435,10.435,0,0,0-7.56-3.24,10.007,10.007,0,0,0-7.56,3.24,10.44,10.44,0,0,0,0,15.12Zm4.86-1.62V43.19l8.1,6.075Z" transform="translate(-149.9 -35.9)" fill="#666"/>
</svg>
