<svg xmlns="http://www.w3.org/2000/svg" width="21.88" height="19.191" viewBox="0 0 21.88 19.191">
  <path id="thumbs-icon" d="M354.48,1201.2v-10.8H350.7v10.8Zm-20.88-9.9h0v1.8a2.137,2.137,0,0,0,.094.72l2.834,6.3a1.653,1.653,0,0,0,1.7,1.08h8.5a1.912,1.912,0,0,0,1.323-.54,1.737,1.737,0,0,0,.567-1.26v-9a1.737,1.737,0,0,0-.567-1.26l-6.236-5.94-1.039.99a1.127,1.127,0,0,0-.378.9v.27l.945,4.14H335.4a1.912,1.912,0,0,0-1.323.54A1.637,1.637,0,0,0,333.6,1191.3Z" transform="translate(-333.1 -1182.509)" fill="#fff" stroke="#1492e6" stroke-width="1"/>
</svg>
